<svg xmlns="http://www.w3.org/2000/svg" viewBox="0 0 64 64">
  <rect width="64" height="64" rx="12" fill="#eaf5ee" />
  <ellipse cx="32" cy="51" rx="24" ry="4" fill="#b8d8bc" />
  <path d="M10 46 C14 34, 26 27, 40 28 C49 29, 55 35, 57 44 C46 47, 29 49, 10 46Z" fill="#86c974" />
  <ellipse cx="30" cy="28" rx="16" ry="11" fill="#ece8df" />
  <ellipse cx="20" cy="30" rx="10" ry="8" fill="#ece8df" />
  <ellipse cx="40" cy="30" rx="10" ry="8" fill="#ece8df" />
  <circle cx="27.5" cy="26.5" r="1.5" fill="#2f4f65" />
  <circle cx="34.5" cy="26.5" r="1.5" fill="#2f4f65" />
  <path d="M26 31 C28.2 33.2, 33.8 33.2, 36 31" fill="none" stroke="#ff8f8f" stroke-width="2" stroke-linecap="round" />
  <path d="M30 18 C33 13, 40 13, 43 17 C39 20, 34 20.5, 30 18Z" fill="#6fbe5c" />
</svg>
